<?xml version="1.0" standalone="no"?><!DOCTYPE svg PUBLIC "-//W3C//DTD SVG 1.1//EN" "http://www.w3.org/Graphics/SVG/1.1/DTD/svg11.dtd"><svg t="1481875114286" class="icon" style="" viewBox="0 0 1024 1024" version="1.1" xmlns="http://www.w3.org/2000/svg" p-id="7610" xmlns:xlink="http://www.w3.org/1999/xlink" width="200" height="200"><defs><style type="text/css"></style></defs><path d="M511.104 80.213333C271.786667 80.213333 77.781333 274.218667 77.781333 513.536c0 239.274667 194.005333 433.28 433.322667 433.28s433.322667-194.005333 433.322667-433.28C944.426667 274.218667 750.421333 80.213333 511.104 80.213333zM511.104 925.482667c-227.541333 0-411.989333-184.405333-411.989333-411.946667S283.562667 101.546667 511.104 101.546667c227.541333 0 411.989333 184.448 411.989333 411.989333S738.688 925.482667 511.104 925.482667z" p-id="7611"></path><path d="M321.365333 568.874667 245.376 568.874667l-14.72 49.664L168.192 618.538667 251.562667 363.093333 283.306667 363.093333l0 0.213333L283.477333 363.093333l31.744 0 83.541333 255.445333L336.298667 618.538667 321.365333 568.874667zM259.072 523.306667l48.597333 0-23.850667-79.317333L282.752 443.989333 259.072 523.306667z" p-id="7612"></path><path d="M476.288 530.986667l0 87.552-59.306667 0L416.981333 363.093333l97.536 0c30.293333 0 54.314667 7.765333 72.106667 23.168 17.749333 15.445333 26.666667 35.754667 26.666667 60.885333 0 25.173333-8.917333 45.397333-26.666667 60.8-17.792 15.36-41.813333 23.082667-72.106667 23.082667L476.288 531.029333zM476.288 485.376l38.229333 0c12.885333 0 22.698667-3.541333 29.44-10.624 6.784-7.04 10.154667-16.170667 10.154667-27.264 0-11.392-3.328-20.650667-10.069333-27.904-6.698667-7.253333-16.554667-10.88-29.525333-10.88l-38.229333 0L476.288 485.376z" p-id="7613"></path><path d="M705.408 530.986667l0 87.552-59.306667 0L646.101333 363.093333l97.536 0c30.293333 0 54.314667 7.765333 72.064 23.168 17.834667 15.445333 26.666667 35.754667 26.666667 60.885333 0 25.173333-8.832 45.397333-26.666667 60.8-17.749333 15.36-41.770667 23.082667-72.064 23.082667L705.408 531.029333zM705.408 485.376l38.229333 0c12.885333 0 22.656-3.541333 29.482667-10.624 6.741333-7.04 10.154667-16.170667 10.154667-27.264 0-11.392-3.370667-20.650667-10.069333-27.904-6.741333-7.253333-16.597333-10.88-29.568-10.88l-38.229333 0L705.408 485.376z" p-id="7614"></path></svg>