<?xml version="1.0" standalone="no"?><!DOCTYPE svg PUBLIC "-//W3C//DTD SVG 1.1//EN" "http://www.w3.org/Graphics/SVG/1.1/DTD/svg11.dtd"><svg t="1482226164347" class="icon" style="" viewBox="0 0 1024 1024" version="1.1" xmlns="http://www.w3.org/2000/svg" p-id="36621" xmlns:xlink="http://www.w3.org/1999/xlink" width="200" height="200"><defs><style type="text/css"></style></defs><path d="M64.678 60.144h319.404v190.632H64.678z" fill="#ABCDE0" p-id="36622"></path><path d="M291.736 0h667.586v386.612H291.736z" fill="#ABCDE0" p-id="36623"></path><path d="M291.736 0h333.782v386.612H291.736z" fill="#D6F1FF" p-id="36624"></path><path d="M384.062 209.398h284.734v62.694H384.062zM725.786 209.398h141.186v62.694h-141.186zM384.062 95.254h482.91v62.694H384.062z" fill="#4386C9" p-id="36625"></path><path d="M411.216 329.734v-86.588c0-31.724-25.718-57.44-57.44-57.44H0V1024h1024V329.734H411.216z" fill="#FFBA00" p-id="36626"></path><path d="M511.954 329.734h-100.736v-86.588c0-31.724-25.718-57.44-57.44-57.44H0V1024h511.952V329.734h0.002z" fill="#FDE09C" p-id="36627"></path><path d="M0 452.628h1024v62.694H0z" fill="#FF8E00" p-id="36628"></path></svg>