<?xml version="1.0" standalone="no"?><!DOCTYPE svg PUBLIC "-//W3C//DTD SVG 1.1//EN" "http://www.w3.org/Graphics/SVG/1.1/DTD/svg11.dtd"><svg t="1482224097097" class="icon" style="" viewBox="0 0 1024 1024" version="1.1" xmlns="http://www.w3.org/2000/svg" p-id="16843" xmlns:xlink="http://www.w3.org/1999/xlink" width="200" height="200"><defs><style type="text/css"></style></defs><path d="M921.6 512c0 55.296-45.056 100.352-100.352 100.352L417.792 612.352l94.208 110.592c34.816 43.008 30.72 106.496-12.288 141.312-18.432 16.384-40.96 24.576-65.536 24.576-28.672 0-57.344-12.288-75.776-34.816L126.976 577.536c-30.72-36.864-30.72-92.16 0-131.072L360.448 167.936c34.816-43.008 98.304-47.104 141.312-12.288s47.104 100.352 12.288 141.312l-94.208 110.592 403.456 0C876.544 411.648 921.6 456.704 921.6 512z" p-id="16844" fill="#1296db"></path></svg>