<?xml version="1.0" standalone="no"?><!DOCTYPE svg PUBLIC "-//W3C//DTD SVG 1.1//EN" "http://www.w3.org/Graphics/SVG/1.1/DTD/svg11.dtd"><svg t="1482224821680" class="icon" style="" viewBox="0 0 1024 1024" version="1.1" xmlns="http://www.w3.org/2000/svg" p-id="25750" xmlns:xlink="http://www.w3.org/1999/xlink" width="200" height="200"><defs><style type="text/css"></style></defs><path d="M995.750478 1023.939766h-398.143584a28.520573 28.520573 0 0 1-28.460339-28.430222V597.305726c0-15.660716 12.799624-28.430223 28.460339-28.430222h398.143584c15.630599 0 28.460339 12.769507 28.460339 28.430222v398.203818a28.55069 28.55069 0 0 1-28.460339 28.430222z m0-568.845386h-398.143584a28.520573 28.520573 0 0 1-28.460339-28.46034V28.430223c0-15.630599 12.799624-28.430223 28.460339-28.430223h398.143584c15.630599 0 28.460339 12.799624 28.460339 28.430223v398.203817c0 15.660716-12.82974 28.460339-28.460339 28.46034zM426.965325 1023.939766H28.791624a28.520573 28.520573 0 0 1-28.430223-28.430222V597.305726c0-15.660716 12.799624-28.430223 28.430223-28.430222h398.173701c15.630599 0 28.430223 12.769507 28.430222 28.430222v398.203818a28.520573 28.520573 0 0 1-28.430222 28.430222z m0-568.845386H28.791624a28.520573 28.520573 0 0 1-28.430223-28.46034V28.430223c0-15.630599 12.799624-28.430223 28.430223-28.430223h398.173701c15.630599 0 28.430223 12.799624 28.430222 28.430223v398.203817c0 15.660716-12.799624 28.460339-28.430222 28.46034z" p-id="25751" fill="#1296db"></path></svg>