<?xml version="1.0" standalone="no"?><!DOCTYPE svg PUBLIC "-//W3C//DTD SVG 1.1//EN" "http://www.w3.org/Graphics/SVG/1.1/DTD/svg11.dtd"><svg t="1481875053572" class="icon" style="" viewBox="0 0 1024 1024" version="1.1" xmlns="http://www.w3.org/2000/svg" p-id="5467" xmlns:xlink="http://www.w3.org/1999/xlink" width="200" height="200"><defs><style type="text/css"></style></defs><path d="M774.4 0 256 0c-140.8 0-256 115.2-256 256l0 512c0 140.8 115.2 256 256 256l518.4 0c140.8 0 249.6-115.2 249.6-256L1024 256C1024 115.2 915.2 0 774.4 0zM774.4 128c70.4 0 128 57.6 128 128l0 512c0 70.4-57.6 128-128 128L256 896c-70.4 0-128-57.6-128-128L128 256c0-70.4 57.6-128 128-128L774.4 128" p-id="5468"></path><path d="M300.8 364.8 300.8 364.8l0 153.6 12.8 0 32 0c25.6 0 51.2-6.4 70.4-19.2 19.2-12.8 25.6-32 32-64 0-25.6-6.4-44.8-25.6-57.6-12.8-12.8-38.4-19.2-70.4-19.2C326.4 364.8 307.2 364.8 300.8 364.8L300.8 364.8zM198.4 742.4 198.4 281.6c0-6.4 0-6.4 6.4-6.4l64 0c25.6 0 57.6 0 83.2 0 51.2 0 89.6 12.8 121.6 32 32 12.8 51.2 32 64 57.6s19.2 51.2 19.2 76.8c0 38.4-12.8 70.4-32 96C505.6 556.8 480 576 448 588.8s-64 19.2-102.4 19.2l-44.8 0 0 134.4c0 6.4 0 6.4-6.4 6.4L198.4 742.4C198.4 748.8 192 748.8 198.4 742.4L198.4 742.4z" p-id="5469"></path><path d="M819.2 512 819.2 512c-12.8-6.4-32-12.8-51.2-19.2-19.2-6.4-38.4-6.4-57.6-6.4-12.8 0-25.6 0-32 6.4s-6.4 6.4-6.4 12.8 0 12.8 6.4 12.8 25.6 12.8 51.2 19.2c38.4 12.8 70.4 25.6 89.6 44.8 19.2 19.2 25.6 38.4 25.6 64 0 38.4-12.8 64-38.4 83.2C787.2 755.2 748.8 768 704 768c-19.2 0-38.4 0-57.6-6.4-19.2-6.4-38.4-12.8-57.6-19.2-6.4 0-6.4-6.4-6.4-6.4L582.4 652.8c0-6.4 0-6.4 6.4-6.4 19.2 12.8 44.8 25.6 64 32s44.8 12.8 64 12.8c12.8 0 25.6 0 32-6.4s6.4-12.8 6.4-12.8c0-6.4-6.4-12.8-12.8-19.2-6.4-6.4-25.6-12.8-51.2-19.2-38.4-12.8-70.4-32-83.2-44.8-12.8-19.2-25.6-38.4-25.6-64 0-32 12.8-57.6 38.4-76.8 25.6-19.2 57.6-32 108.8-32 44.8 0 76.8 6.4 102.4 19.2 6.4 0 6.4 6.4 6.4 12.8L819.2 512C825.6 512 825.6 512 819.2 512L819.2 512z" p-id="5470"></path></svg>