<?xml version="1.0" standalone="no"?><!DOCTYPE svg PUBLIC "-//W3C//DTD SVG 1.1//EN" "http://www.w3.org/Graphics/SVG/1.1/DTD/svg11.dtd"><svg t="1482224144365" class="icon" style="" viewBox="0 0 1024 1024" version="1.1" xmlns="http://www.w3.org/2000/svg" p-id="18223" xmlns:xlink="http://www.w3.org/1999/xlink" width="200" height="200"><defs><style type="text/css"></style></defs><path d="M202.752 411.648l403.456 0L512 299.008c-34.816-43.008-30.72-106.496 12.288-141.312s104.448-30.72 141.312 12.288l233.472 278.528c30.72 36.864 30.72 92.16 0 131.072L663.552 856.064c-20.48 22.528-47.104 34.816-75.776 34.816-22.528 0-45.056-8.192-65.536-24.576-43.008-36.864-47.104-100.352-12.288-141.312l94.208-110.592L202.752 614.4C147.456 612.352 102.4 567.296 102.4 512S147.456 411.648 202.752 411.648z" p-id="18224" fill="#1296db"></path></svg>