<?xml version="1.0" standalone="no"?><!DOCTYPE svg PUBLIC "-//W3C//DTD SVG 1.1//EN" "http://www.w3.org/Graphics/SVG/1.1/DTD/svg11.dtd"><svg t="1482223311987" class="icon" style="" viewBox="0 0 1024 1024" version="1.1" xmlns="http://www.w3.org/2000/svg" p-id="4373" xmlns:xlink="http://www.w3.org/1999/xlink" width="200" height="200"><defs><style type="text/css"></style></defs><path d="M664.1664 768.3584C646.5536 793.2928 628.224 818.176 599.4496 818.6368 571.136 819.2 562.0224 802.4064 529.664 802.4064 497.3056 802.4064 487.168 818.176 460.3904 819.2 432.5376 820.224 411.392 792.1664 393.6256 767.3344 357.2736 716.4928 329.5232 623.616 366.7968 560.9472 385.3312 529.8176 418.4064 510.1568 454.2976 509.6448 481.6384 509.1328 507.392 527.4112 524.0832 527.4112 540.7744 527.4112 572.1088 505.3952 605.0304 508.672 618.8544 509.184 657.5104 514.048 682.3936 549.2736 680.3456 550.5024 636.2112 575.3856 636.672 627.2 637.2864 689.2032 692.7872 709.7856 693.4016 710.0928 692.9408 711.5776 684.544 739.4816 664.1664 768.3584M605.44 409.6C608.1536 433.5616 598.2208 457.6768 583.4752 475.0336 568.6784 492.3392 544.4608 505.8048 520.7552 504.0128 517.4784 480.4608 529.4592 455.936 543.1808 440.6784 558.4384 423.3216 584.192 410.4192 605.44 409.6M358.4 102.4 665.6 102.4C693.8624 102.4 716.8 125.3376 716.8 153.6L716.8 204.8 307.2 204.8 307.2 153.6C307.2 125.3376 330.1376 102.4 358.4 102.4M870.4 204.8 819.2 204.8 819.2 102.4C819.2 45.8752 773.3248 0 716.8 0L307.2 0C250.624 0 204.8 45.8752 204.8 102.4L204.8 204.8 153.6 204.8C97.024 204.8 51.2 250.6752 51.2 307.2L51.2 921.6C51.2 978.176 97.024 1024 153.6 1024L870.4 1024C926.9248 1024 972.8 978.176 972.8 921.6L972.8 307.2C972.8 250.6752 926.9248 204.8 870.4 204.8" p-id="4374" fill="#d81e06"></path></svg>