<?xml version="1.0" standalone="no"?><!DOCTYPE svg PUBLIC "-//W3C//DTD SVG 1.1//EN" "http://www.w3.org/Graphics/SVG/1.1/DTD/svg11.dtd"><svg t="1481875029329" class="icon" style="" viewBox="0 0 1024 1024" version="1.1" xmlns="http://www.w3.org/2000/svg" p-id="4909" xmlns:xlink="http://www.w3.org/1999/xlink" width="200" height="200"><defs><style type="text/css"></style></defs><path d="M0 192l0 704 960 0L960 192 0 192zM320 832l-64 0L256 416l-64 160-64-160 0 416L64 832 64 256l32 0 32 0 64 160 64-160 32 0 32 0L320 832zM588.8 832 571 704 453 704l-17.8 128-76.8 0 102.4-576 102.4 0 102.4 576L588.8 832zM896 832l-64 0-32-144-32 144-64 0 64-288-64-288 64 0 32 144 32-144 64 0-64 288L896 832zM524.8 371.2 562.1 640 461.9 640l37.3-268.8L524.8 371.2z" p-id="4910"></path></svg>